HIERARCHY
ROOT root
{
	OFFSET	0	13.1	24.9
	CHANNELS 6  Xposition Yposition Zposition Xrotation Yrotation Zrotation
	JOINT spine_1
	{
		OFFSET	0	9.99999	0
		CHANNELS 3  Xrotation Yrotation Zrotation
		JOINT spine_2
		{
			OFFSET	0	112	-10
			CHANNELS 3  Xrotation Yrotation Zrotation
			JOINT spine_3
			{
				OFFSET	0	206.5	19.3
				CHANNELS 3  Xrotation Yrotation Zrotation
				JOINT spine_4
				{
					OFFSET	0	110.4	14.6
					CHANNELS 3  Xrotation Yrotation Zrotation
					JOINT neck_1
					{
						OFFSET	0	71.8	-50.3
						CHANNELS 3  Xrotation Yrotation Zrotation
						JOINT neck_2
						{
							OFFSET	0	86.2	-25.8
							CHANNELS 3  Xrotation Yrotation Zrotation
							JOINT head_ee
							{
								OFFSET	0	179.8	-8.7
								CHANNELS 3  Xrotation Yrotation Zrotation
								End Site
								{
									OFFSET	1	0	0
								}
							}
						}
					}
					JOINT left_clavicle
					{
						OFFSET	-43.2	22.4	-70.8
						CHANNELS 3  Xrotation Yrotation Zrotation
						JOINT left_shoulder
						{
							OFFSET	-93.9	-5.79999	48.7
							CHANNELS 3  Xrotation Yrotation Zrotation
							JOINT left_elbow
							{
								OFFSET	-291.4	-30.8	15.2
								CHANNELS 3  Xrotation Yrotation Zrotation
								JOINT left_lowarm_twist
								{
									OFFSET	-110.7	-3.89999	13.6
									CHANNELS 3  Xrotation Yrotation Zrotation
									JOINT left_hand
									{
										OFFSET	-110.7	-3.89999	13.6
										CHANNELS 3  Xrotation Yrotation Zrotation
										JOINT left_ee
										{
											OFFSET	-80.8	-5.10001	12.1
											CHANNELS 3  Xrotation Yrotation Zrotation
											End Site
											{
												OFFSET	1	0	0
											}
										}
									}
								}
							}
						}
					}
					JOINT right_clavicle
					{
						OFFSET	43.2	22.4	-70.8
						CHANNELS 3  Xrotation Yrotation Zrotation
						JOINT right_shoulder
						{
							OFFSET	93.9	-5.79999	48.7
							CHANNELS 3  Xrotation Yrotation Zrotation
							JOINT right_elbow
							{
								OFFSET	291.4	-30.8	15.2
								CHANNELS 3  Xrotation Yrotation Zrotation
								JOINT right_lowarm_twist
								{
									OFFSET	110.7	-3.89999	13.6
									CHANNELS 3  Xrotation Yrotation Zrotation
									JOINT right_hand
									{
										OFFSET	110.7	-3.89999	13.6
										CHANNELS 3  Xrotation Yrotation Zrotation
										JOINT right_ee
										{
											OFFSET	80.8	-5.10001	12.1
											CHANNELS 3  Xrotation Yrotation Zrotation
											End Site
											{
												OFFSET	1	0	0
											}
										}
									}
								}
							}
						}
					}
				}
			}
		}
	}
	JOINT left_hip
	{
		OFFSET	-82.8	-127.5	0.300001
		CHANNELS 3  Xrotation Yrotation Zrotation
		JOINT left_knee
		{
			OFFSET	-28.2	-396.7	2.2
			CHANNELS 3  Xrotation Yrotation Zrotation
			JOINT left_ankle
			{
				OFFSET	-11.7	-411.3	35.4
				CHANNELS 3  Xrotation Yrotation Zrotation
				JOINT left_toes
				{
					OFFSET	0	-60	-88.6
					CHANNELS 3  Xrotation Yrotation Zrotation
					JOINT left_foot_ee
					{
						OFFSET	-22.5	-16.5	-42.2
						CHANNELS 3  Xrotation Yrotation Zrotation
						End Site
						{
							OFFSET	1	0	0
						}
					}
				}
			}
		}
	}
	JOINT right_hip
	{
		OFFSET	82.8	-127.5	0.300001
		CHANNELS 3  Xrotation Yrotation Zrotation
		JOINT right_knee
		{
			OFFSET	28.2	-396.7	2.2
			CHANNELS 3  Xrotation Yrotation Zrotation
			JOINT right_ankle
			{
				OFFSET	11.7	-411.3	35.4
				CHANNELS 3  Xrotation Yrotation Zrotation
				JOINT right_toes
				{
					OFFSET	0	-60	-88.6
					CHANNELS 3  Xrotation Yrotation Zrotation
					JOINT right_foot_ee
					{
						OFFSET	22.5	-16.5	-42.2
						CHANNELS 3  Xrotation Yrotation Zrotation
						End Site
						{
							OFFSET	1	0	0
						}
					}
				}
			}
		}
	}
}
MOTION
Frames: 6
Frame Time: 0.02
3731.31 703.515 -161.349 -156.409 -50.3738 -152.454 6.92148 -0.38258 -3.40913 6.92793 -0.165003 -3.42654 6.92885 0.146538 -3.42738 6.91267 -0.396271 -3.40757 -0.766285 -5.39463 5.76448 -0.486389 -14.3127 5.56236 -0.0 0.0 -0.0 8.63728 10.934 16.2633 -9.94182 -40.5162 47.6298 1.2487 -31.7383 0.354988 22.6442 0.234582 -2.86431 -2.41871 -25.2727 -27.2022 -0.0 0.0 -0.0 3.08749 0.112231 -5.94311 -19.9795 -39.2183 -69.498 1.55527 37.6094 -0.529629 48.2373 0.845528 5.9243 0.83381 -13.9866 -11.0101 0.0 0.0 0.0 24.3213 4.61309 -6.71737 5.5251 -0.266625 -0.805386 37.7544 7.77471 -4.66255 -22.6315 0.0 0.0 -0.0 0.0 -0.0 46.7968 17.5579 -5.71681 -35.4467 0.202783 -5.35041 13.4203 -17.9663 1.91479 24.9211 -0.0 -0.0 0.0 0.0 0.0 
3747.86 703.298 -160.378 -157.213 -50.1322 -153.632 7.04557 -0.309279 -3.40403 7.05201 -0.0921744 -3.41679 7.04841 0.211183 -3.41151 7.03232 -0.329933 -3.40209 -0.523345 -5.45112 4.82325 -0.289201 -13.6543 4.5732 -0.0 0.0 -0.0 8.45069 12.7759 15.7716 -10.4369 -39.8677 49.0195 1.37471 -34.2528 0.423629 20.9402 0.256536 -2.64777 -2.47501 -24.3142 -27.2625 -0.0 0.0 -0.0 2.73583 -1.29064 -5.36233 -16.2154 -43.5383 -67.287 1.40994 34.9301 -0.443626 46.1169 0.705054 5.6921 0.648425 -12.5563 -9.29636 0.0 0.0 0.0 23.2394 4.96523 -5.91672 4.82194 -0.228385 -0.704336 40.2934 7.39854 -4.88761 -21.9257 0.0 0.0 -0.0 0.0 -0.0 45.2569 18.4797 -4.93089 -33.8514 0.122616 -5.11883 11.5941 -18.8093 1.66948 24.8608 -0.0 -0.0 0.0 0.0 0.0 
3749.75 703.324 -153.357 -157.777 -49.0549 -154.76 7.07535 -0.375176 -3.19042 7.08099 -0.171508 -3.2078 7.08251 0.111561 -3.21044 7.06835 -0.396606 -3.18783 -1.15511 -4.02449 5.85274 -0.930108 -11.9242 5.7566 -0.0 0.0 -0.0 7.49945 11.4327 14.1956 -13.2172 -41.2224 47.5408 1.39167 -34.5803 0.433214 22.7775 0.232594 -2.88122 -3.16343 -22.1981 -31.5766 -0.0 0.0 -0.0 3.0243 0.760043 -5.77737 -16.4688 -44.0913 -68.1119 1.29489 32.6766 -0.379607 45.0721 0.639025 5.57582 0.827615 -14.5103 -11.161 0.0 0.0 0.0 23.5845 6.95989 -6.27625 3.34078 -0.15192 -0.49002 38.1298 7.95996 -4.6976 -22.9574 0.0 0.0 -0.0 0.0 -0.0 45.1703 18.5604 -5.21394 -31.4269 0.013228 -4.76292 9.92339 -18.4473 1.43514 24.7074 -0.0 -0.0 0.0 0.0 0.0 
3762.81 703.419 -151.544 -158.313 -49.4177 -155.451 7.02438 -0.263252 -3.31601 7.03049 -0.0518308 -3.32603 7.02493 0.244733 -3.31743 7.00969 -0.281969 -3.31448 -0.697731 -4.05557 4.88136 -0.514305 -11.2068 4.76389 -0.0 0.0 -0.0 7.88141 12.8184 14.7722 -11.4854 -39.1833 50.5271 1.39843 -34.71 0.437056 19.8507 0.267195 -2.50901 -2.57273 -22.2936 -27.2266 -0.0 0.0 -0.0 2.75076 -0.904574 -5.36402 -9.92142 -46.4924 -63.9908 1.19201 30.5602 -0.325664 44.363 0.595432 5.49623 0.388337 -12.861 -7.7537 0.0 0.0 0.0 21.5389 6.16439 -5.62318 3.98733 -0.184615 -0.58381 39.6663 7.36494 -4.83287 -20.8321 0.0 0.0 -0.0 0.0 -0.0 43.6315 16.9275 -3.96485 -29.3464 -0.0685464 -4.45412 8.25798 -19.5056 1.20489 24.5587 -0.0 -0.0 0.0 0.0 0.0 
3764.77 702.058 -141.932 -158.311 -49.0059 -155.977 7.09887 -0.108152 -3.03934 7.104 0.0853773 -3.04007 7.09227 0.352509 -3.02079 7.07956 -0.128764 -3.03854 -0.474979 -3.18763 5.23815 -0.297981 -9.94932 5.26586 -0.0 0.0 -0.0 6.93741 11.9652 13.1812 -11.9067 -40.6657 51.42 1.35727 -33.9132 0.413854 19.8935 0.266825 -2.51447 -2.41619 -20.8364 -25.5347 -0.0 0.0 -0.0 3.39372 0.0176169 -6.54127 -7.26194 -48.7902 -62.1442 1.07382 28.0095 -0.267835 44.0504 0.576531 5.46099 0.264515 -11.9225 -6.60134 0.0 0.0 0.0 20.7084 6.67761 -5.49071 3.92112 -0.181218 -0.574222 37.2067 8.56941 -4.61509 -20.0925 0.0 0.0 -0.0 0.0 -0.0 43.2325 17.6646 -4.32597 -28.1773 -0.109551 -4.27939 7.63012 -19.3362 1.11473 24.5593 -0.0 -0.0 0.0 0.0 0.0 
3770.79 702.037 -130.521 -159.6 -48.54 -157.713 6.93475 -0.0893486 -2.72154 6.93886 0.0839456 -2.72171 6.92929 0.330712 -2.70286 6.91911 -0.100141 -2.72116 0.0523614 -2.32704 4.99178 0.198556 -8.2305 5.14088 -0.0 0.0 -0.0 6.26305 12.216 12.0033 -13.1 -40.826 51.0989 1.28163 -32.4092 0.372473 21.0311 0.255529 -2.65932 -2.22387 -21.1432 -24.2678 -0.0 0.0 -0.0 3.73369 -1.99017 -7.30409 -3.60284 -50.3137 -60.4174 0.977122 25.8282 -0.224049 43.675 0.554088 5.41852 0.356471 -9.99444 -6.43419 0.0 0.0 0.0 19.6218 7.31795 -5.92127 2.81138 -0.12594 -0.412959 38.1195 8.98595 -4.70144 -19.9616 0.0 0.0 -0.0 0.0 -0.0 40.8872 16.2178 -4.12325 -24.6151 -0.212383 -3.74247 6.59116 -18.8026 0.964146 23.4566 -0.0 -0.0 0.0 0.0 0.0 
